<svg width="107" height="26" viewBox="0 0 107 26" fill="none" xmlns="http://www.w3.org/2000/svg">
<path d="M0.146095 25V0.390625H1.55235V25H0.146095ZM3.13438 14.1719V12.8711H8.40781C10.9391 12.8711 12.5211 11.9219 13.1539 10.0234C13.4117 9.22656 13.5406 8.26562 13.5406 7.14062C13.5406 4.39844 12.65 2.69922 10.8688 2.04297C10.1656 1.78516 9.3336 1.65625 8.37266 1.65625H3.13438V0.390625H9.1461C12.1461 0.578125 13.9859 1.9375 14.6656 4.46875C14.8766 5.26562 14.982 6.19141 14.982 7.24609C14.982 11.2539 13.4352 13.5156 10.3414 14.0312C9.96641 14.1016 9.56797 14.1484 9.1461 14.1719H3.13438ZM24.9017 4.50391C24.9017 4.03516 25.1361 3.73047 25.6048 3.58984C25.722 3.56641 25.8158 3.55469 25.8861 3.55469C26.3548 3.55469 26.6595 3.77734 26.8002 4.22266C26.8236 4.31641 26.8353 4.41016 26.8353 4.50391C26.8353 4.97266 26.6127 5.27734 26.1673 5.41797C26.0736 5.44141 25.9798 5.45312 25.8861 5.45312C25.3939 5.45312 25.0775 5.23047 24.9369 4.78516C24.9134 4.66797 24.9017 4.57422 24.9017 4.50391ZM25.183 25V6.85938H26.5892V25H25.183ZM37.4581 20.043C37.4581 21.2852 37.9269 22.3984 38.8644 23.3828C39.9191 24.4609 41.3136 25 43.048 25V23.6641C41.5948 23.6641 40.4347 23.043 39.5675 21.8008C39.1222 21.1914 38.8995 20.6055 38.8995 20.043V12.0273C38.8995 11.0195 39.3683 10.1055 40.3058 9.28516C41.1261 8.55859 42.0519 8.19531 43.0831 8.19531V6.85938C40.9503 6.85938 39.3448 7.69141 38.2667 9.35547C37.7277 10.2227 37.4581 11.0781 37.4581 11.9219V20.043ZM44.63 8.23047C45.8488 8.23047 46.8448 8.73438 47.6183 9.74219C48.0402 10.3516 48.298 11.0547 48.3917 11.8516C48.4152 11.9922 48.4269 12.1797 48.4269 12.4141L49.798 11.9219C49.798 10.2578 49.1183 8.92188 47.7589 7.91406C46.8214 7.21094 45.7784 6.85938 44.63 6.85938V8.23047ZM44.5948 25.0352C46.2589 25.0352 47.6769 24.4023 48.8488 23.1367C49.7394 22.1758 50.1847 21.1094 50.1847 19.9375L48.8136 19.4102C48.8136 19.6211 48.8019 19.7852 48.7784 19.9023C48.6144 21.2617 47.923 22.3164 46.7042 23.0664C46.0011 23.4883 45.298 23.6992 44.5948 23.6992V25.0352ZM59.6825 8.65234V7.28125H61.8973V0.390625H63.3036V7.28125H65.5184V8.65234H63.3036V19.4102C63.3036 21.4727 63.9481 22.7734 65.2372 23.3125C65.8466 23.5469 66.5966 23.6641 67.4872 23.6641H67.5223L67.8388 25H67.3114C64.4989 24.9766 62.7997 23.8984 62.2138 21.7656C62.0028 21.0391 61.8973 20.1484 61.8973 19.0938V8.65234H59.6825ZM76.9147 20.1836V6.92969H78.3209V20.0078C78.3209 20.9688 78.8248 21.8711 79.8327 22.7148C80.7233 23.418 81.6959 23.7695 82.7506 23.7695V25.1758C80.5475 25.1758 78.8717 24.3086 77.7233 22.5742C77.1842 21.7539 76.9147 20.957 76.9147 20.1836ZM84.2272 25.1758V23.7695C85.7506 23.7695 86.9694 23.1719 87.8834 21.9766C88.3991 21.3203 88.6569 20.6641 88.6569 20.0078V6.92969H90.0631V20.1836C90.0631 21.2383 89.5827 22.2812 88.6217 23.3125C87.4498 24.5312 85.985 25.1523 84.2272 25.1758ZM100.616 25V6.85938H102.022V9.84766C102.42 8.86328 103.159 8.07812 104.237 7.49219C104.987 7.09375 105.772 6.89453 106.592 6.89453H106.627L106.276 8.19531C105.151 8.19531 104.131 8.89844 103.217 10.3047C102.42 11.5469 102.022 12.8359 102.022 14.1719V25H100.616Z" fill="black"/>
</svg>
